<?xml version="1.0" standalone="no"?>
<!DOCTYPE svg PUBLIC "-//W3C//DTD SVG 20010904//EN"
 "http://www.w3.org/TR/2001/REC-SVG-20010904/DTD/svg10.dtd">
<svg version="1.0" xmlns="http://www.w3.org/2000/svg"
 width="736.000000pt" height="490.000000pt" viewBox="0 0 736.000000 490.000000"
 preserveAspectRatio="xMidYMid meet">

<g transform="translate(0.000000,490.000000) scale(0.100000,-0.100000)"
fill="#000000" stroke="none">
<path d="M1673 4271 c-101 -48 -204 -160 -187 -204 3 -8 1 -18 -5 -22 -7 -3
-8 0 -5 9 8 21 -9 20 -28 -1 -40 -46 -41 -56 -28 -302 l13 -236 55 5 55 5 -2
78 c-1 42 2 77 7 77 5 0 19 -11 31 -24 26 -28 127 -79 145 -73 6 2 -9 13 -34
24 -49 22 -119 89 -156 151 -23 39 -58 171 -45 173 3 1 -5 5 -19 9 l-25 8 24
1 c21 1 23 5 19 36 -2 19 0 35 6 35 5 0 7 2 4 6 -3 3 7 32 24 66 39 81 118
159 188 186 30 12 48 21 40 21 -8 1 -43 -12 -77 -28z"/>
<path d="M2200 4095 c0 -2 7 -30 15 -62 8 -31 15 -77 15 -100 l0 -43 450 0
450 0 9 -22 c5 -13 21 -198 36 -413 14 -214 35 -507 45 -650 11 -143 33 -457
51 -699 l31 -438 -25 -27 c-24 -24 -35 -87 -13 -73 5 3 6 -3 2 -13 -4 -11 -1
-22 6 -27 9 -7 8 -8 -6 -6 -11 2 -20 11 -22 21 -3 22 -14 36 -14 18 0 -7 -5
-9 -11 -5 -8 5 -8 1 0 -14 14 -26 32 -32 97 -32 70 0 94 -22 94 -83 0 -65 -20
-79 -118 -79 -53 0 -91 5 -112 15 l-31 16 2 -85 c2 -71 -1 -87 -16 -98 -14
-10 -17 -22 -13 -59 8 -72 16 -77 124 -77 75 0 94 -3 94 -14 0 -22 -59 -76
-83 -76 -12 -1 -65 -2 -118 -3 l-96 -2 -6 160 c-4 88 -10 176 -14 195 -6 21
-2 82 8 165 12 92 15 169 11 264 l-5 133 21 -11 c27 -15 49 -4 110 53 65 61
68 71 38 114 -37 53 -166 181 -198 198 -35 18 -90 18 -135 -1 -42 -18 -115
-18 -160 -2 -80 30 -177 127 -190 190 -4 20 -11 27 -29 27 -83 0 58 -243 183
-316 26 -15 66 -33 88 -39 39 -12 40 -13 39 -56 -1 -95 -25 -406 -34 -449 -5
-25 -14 -146 -19 -270 -9 -207 -15 -277 -27 -338 l-5 -23 -469 3 c-455 3 -469
4 -497 24 -57 42 -60 57 -84 484 -12 217 -24 397 -26 399 -2 3 -19 -14 -39
-37 -19 -23 -39 -42 -43 -42 -13 0 -151 141 -146 150 3 4 -4 19 -16 31 l-20
24 4 -27 c2 -16 4 -28 3 -28 0 0 -23 7 -50 15 -58 18 -106 19 -160 4 -36 -10
-38 -12 -32 -41 9 -45 47 -90 111 -132 58 -39 63 -47 42 -64 -10 -8 -26 -4
-62 17 -68 39 -113 85 -137 138 -19 44 -21 45 -38 27 -132 -142 -140 -153
-140 -195 0 -40 5 -48 107 -150 l106 -108 -9 -98 c-11 -117 -11 -407 -1 -446
4 -15 13 -27 20 -27 9 0 16 35 25 119 16 159 54 351 70 351 4 0 24 -16 45 -35
28 -27 37 -43 37 -68 0 -37 38 -346 45 -364 2 -7 11 -10 18 -7 11 4 16 38 20
142 3 75 11 175 19 221 12 83 13 85 73 149 l61 65 15 -254 c17 -278 25 -314
80 -346 16 -10 29 -20 29 -23 0 -12 -255 2 -282 16 -34 18 -38 18 -38 -1 0
-17 1 -17 -99 -15 -42 1 -87 8 -102 16 -35 18 -39 18 -39 -1 0 -10 -10 -15
-27 -15 -50 1 -577 -9 -613 -10 l-35 -2 30 -8 c17 -4 1448 -8 3180 -8 1733 0
3164 4 3180 8 l30 8 -30 2 c-16 1 -47 2 -68 1 -34 -1 -39 2 -53 34 -45 110
-58 292 -30 449 19 106 20 171 4 234 -11 43 -13 45 -20 22 -5 -17 -6 -11 -3
20 3 33 2 39 -5 23 -8 -20 -18 -99 -38 -303 -8 -78 -9 -74 -6 50 2 85 0 114
-4 78 -4 -31 -11 -60 -15 -65 -5 -4 -6 6 -3 22 4 21 1 18 -8 -10 -8 -22 -15
-35 -16 -30 -6 30 -17 -49 -15 -100 2 -52 -11 -168 -14 -122 -1 20 -17 23 -24
5 -2 -7 -2 -2 0 11 4 22 3 23 -13 10 -14 -11 -16 -26 -11 -94 3 -44 15 -109
26 -145 24 -76 23 -70 13 -70 -17 0 -45 109 -68 268 -4 27 -7 30 -18 19 -8 -7
-16 -22 -20 -33 -3 -10 -4 1 -2 26 3 38 2 41 -6 20 -6 -14 -15 -35 -20 -46
-11 -24 6 -184 23 -217 14 -26 4 -47 -23 -47 -16 0 -19 3 -10 9 14 8 7 61 -8
61 -4 0 -17 -16 -29 -35 -15 -26 -27 -35 -47 -35 -23 0 -25 2 -14 15 16 19 5
34 -12 17 -20 -20 -27 -14 -30 25 -4 51 -26 54 -34 5 -12 -78 -39 -82 -51 -6
-3 21 -12 47 -20 56 -13 14 -12 19 6 37 22 22 19 51 -6 51 -27 0 -53 -21 -53
-42 0 -12 -10 -52 -22 -90 -17 -54 -26 -68 -42 -69 -12 0 -42 -2 -68 -4 -27
-2 -48 -2 -48 0 0 1 18 14 40 29 40 26 100 115 100 149 0 10 6 20 14 23 8 3
16 14 19 24 5 21 66 50 104 50 13 0 33 -5 45 -11 25 -13 80 -3 57 11 -10 7 -8
9 11 8 14 -1 40 -1 59 0 32 2 33 3 28 36 -3 18 -2 38 2 42 5 5 14 48 21 96 10
71 10 105 -1 175 -12 83 -13 86 -20 48 -4 -22 -12 -51 -17 -65 l-10 -25 -12
30 c-10 23 -10 46 -1 98 13 81 14 134 2 141 -13 8 -21 -19 -21 -71 0 -26 -2
-44 -5 -42 -8 9 -9 103 -1 137 8 35 26 44 26 13 0 -11 4 -22 9 -25 4 -3 14 29
21 71 6 42 14 82 16 88 7 17 -72 98 -87 89 -7 -4 -10 -3 -6 2 3 5 -13 30 -36
55 -23 25 -35 36 -26 25 9 -12 14 -27 11 -35 -3 -9 0 -11 8 -6 9 6 11 4 5 -4
-4 -7 1 -22 12 -34 11 -12 23 -29 28 -37 4 -8 -4 -2 -18 13 -15 17 -28 24 -32
17 -3 -6 -11 -7 -17 -4 -6 4 9 -22 35 -57 54 -77 63 -106 46 -156 -7 -21 -14
-47 -15 -58 -2 -11 -7 -33 -12 -50 l-9 -30 -11 25 c-5 14 -28 50 -51 80 -23
30 -44 65 -47 78 -4 12 -10 22 -16 22 -5 0 -6 -5 -2 -12 4 -7 3 -8 -4 -4 -9 5
-9 13 0 29 10 20 10 21 -6 7 -16 -13 -20 -12 -32 5 -8 10 -15 30 -15 44 -1 19
-3 21 -6 8 -5 -18 -5 -18 -19 0 -7 10 -13 23 -14 28 0 6 5 3 11 -5 9 -13 10
-13 6 0 -2 8 -11 14 -18 13 -8 -2 -22 9 -31 25 -29 47 -213 229 -269 265 -65
41 -184 88 -297 117 -150 38 -177 41 -223 25 -23 -8 -52 -15 -65 -15 -13 0
-24 -4 -24 -10 0 -5 5 -10 11 -10 5 0 7 -5 3 -11 -4 -8 -29 -9 -73 -5 -61 5
-64 5 -36 -8 70 -31 205 -158 239 -224 l17 -34 -23 8 c-36 11 -275 162 -364
230 -61 46 -92 63 -126 68 -26 4 -54 16 -64 27 -17 19 -27 20 -145 15 -140 -7
-254 -20 -314 -37 -63 -17 -183 -84 -266 -146 -101 -77 -319 -275 -319 -290 0
-9 15 -13 43 -13 27 0 37 -3 28 -9 -18 -11 253 -23 564 -23 138 -1 244 -3 237
-5 -7 -3 -25 -16 -40 -30 -43 -40 -71 -56 -88 -49 -10 4 -14 1 -12 -6 4 -11
-62 -68 -77 -68 -3 0 -24 -18 -46 -40 -23 -22 -45 -38 -50 -34 -5 3 -9 2 -8
-3 4 -21 -2 -33 -16 -33 -8 0 -15 -4 -15 -9 0 -26 -81 -30 -501 -28 l-435 2 1
32 c0 17 -3 29 -7 27 -14 -9 -9 7 8 23 12 12 18 13 23 4 9 -13 43 13 54 42 10
27 -8 20 -21 -8 -6 -14 -16 -25 -22 -25 -15 0 -12 16 7 35 18 19 21 -33 -67
1175 -11 146 -33 458 -50 694 -35 477 -36 483 -107 527 l-38 24 -427 2 c-236
1 -428 0 -428 -2z m896 -2067 c24 -18 44 -38 44 -45 0 -6 -19 -28 -42 -48 -38
-32 -43 -34 -50 -18 -9 23 -10 143 -1 143 3 0 25 -15 49 -32z m3175 -115 c13
-16 12 -17 -3 -4 -10 7 -18 15 -18 17 0 8 8 3 21 -13z m-1118 -34 c14 -17 17
-33 13 -57 -9 -59 -21 -65 -104 -58 -115 11 -212 58 -212 103 0 15 37 18 42 3
2 -7 17 -5 41 5 20 8 47 14 60 12 12 -2 16 -2 9 0 -7 3 -9 9 -6 15 4 7 32 9
72 5 53 -4 70 -10 85 -28z m-1320 -6 c-7 -2 -19 -2 -25 0 -7 3 -2 5 12 5 14 0
19 -2 13 -5z m-2749 -182 c44 -45 47 -51 44 -92 l-3 -44 -74 70 c-69 67 -73
72 -60 93 20 33 40 27 93 -27z m3216 -209 c0 -45 -27 -99 -64 -127 -24 -17
-42 -20 -147 -20 -137 0 -139 1 -139 82 0 75 21 87 138 80 58 -4 102 -2 132 7
75 22 80 21 80 -22z m-3010 -28 c7 -30 10 -57 8 -60 -3 -2 -14 6 -26 19 -17
18 -20 30 -15 60 8 52 20 46 33 -19z m1630 -57 c0 -19 11 -94 25 -168 14 -74
29 -162 33 -196 l9 -63 -95 0 c-86 0 -93 2 -87 18 27 62 57 188 59 252 5 112
56 256 56 157z m577 27 c-3 -3 -12 -4 -19 -1 -8 3 -5 6 6 6 11 1 17 -2 13 -5z
m305 -11 c-40 -2 -103 -2 -140 0 -37 2 -4 3 73 3 77 0 107 -2 67 -3z m-224
-30 c-16 -2 -40 -2 -55 0 -16 2 -3 4 27 4 30 0 43 -2 28 -4z m2726 -162 c4 -6
3 -11 -3 -11 -5 0 -12 -14 -16 -30 -4 -17 -11 -27 -17 -24 -10 6 -6 73 10 154
6 33 7 32 13 -21 3 -31 9 -61 13 -68z m303 -73 c-3 -7 -5 -2 -5 12 0 14 2 19
5 13 2 -7 2 -19 0 -25z m-347 -16 c0 -5 -7 -9 -15 -9 -8 0 -12 4 -9 9 3 4 9 8
15 8 5 0 9 -4 9 -8z m307 -24 c-3 -8 -6 -5 -6 6 -1 11 2 17 5 13 3 -3 4 -12 1
-19z m30 -40 c-3 -8 -6 -5 -6 6 -1 11 2 17 5 13 3 -3 4 -12 1 -19z m-3158 -55
c17 -67 55 -128 99 -158 l37 -25 -134 0 -134 0 25 20 c39 30 59 91 52 155 -7
54 -6 55 18 55 22 0 27 -7 37 -47z m996 10 c14 -74 64 -151 120 -181 15 -8
-76 -12 -353 -14 -204 -2 -372 -1 -372 2 1 3 15 14 33 25 44 28 94 106 103
160 l6 45 228 0 228 0 7 -37z m611 17 c10 -10 446 -16 462 -6 5 3 17 -20 26
-51 14 -43 31 -69 71 -108 l52 -51 -41 2 c-23 2 -210 3 -416 4 -280 0 -370 3
-355 12 54 30 104 103 120 176 6 28 11 32 39 32 18 0 36 -4 42 -10z m1104 -30
c0 -5 -2 -10 -4 -10 -3 0 -8 5 -11 10 -3 6 -1 10 4 10 6 0 11 -4 11 -10z
m-3400 -165 c0 -11 -12 -15 -47 -14 l-48 1 35 13 c47 18 60 18 60 0z m280 0
c0 -11 -12 -15 -47 -14 l-48 1 35 13 c47 18 60 18 60 0z m3227 -11 c-3 -3 -12
-4 -19 -1 -8 3 -5 6 6 6 11 1 17 -2 13 -5z"/>
<path d="M4930 1860 c-9 -6 -10 -10 -3 -10 6 0 15 5 18 10 8 12 4 12 -15 0z"/>
<path d="M5136 1863 c7 -4 14 -17 17 -28 5 -16 5 -15 4 4 -1 14 -9 26 -17 28
-10 3 -11 2 -4 -4z"/>
<path d="M3520 4023 c-19 -8 -39 -21 -43 -29 -6 -11 -18 -13 -42 -8 -54 10
-60 -4 -18 -42 47 -42 93 -45 128 -10 13 14 31 26 39 28 11 2 13 8 7 17 -7 11
-13 11 -32 -3 -13 -9 -27 -16 -31 -16 -14 0 -9 28 6 33 16 6 42 48 29 46 -4 0
-24 -7 -43 -16z"/>
<path d="M947 3968 c-115 -104 -101 -288 28 -363 55 -33 68 -32 19 1 -74 51
-106 112 -103 197 2 72 17 108 67 160 44 46 38 48 -11 5z"/>
<path d="M4690 3991 c-155 -32 -286 -222 -264 -385 9 -75 71 -279 94 -311 4
-5 12 -26 19 -45 10 -29 129 -252 160 -299 8 -13 12 -13 27 0 62 51 234 372
294 549 28 82 32 104 28 170 -5 91 -32 154 -95 221 -67 72 -183 116 -263 100z
m133 -185 c65 -27 116 -119 101 -183 -19 -82 -81 -133 -163 -133 -63 0 -101
18 -137 65 -101 133 45 316 199 251z"/>
<path d="M1748 3573 c6 -2 18 -2 25 0 6 3 1 5 -13 5 -14 0 -19 -2 -12 -5z"/>
<path d="M4085 3497 c-16 -7 -36 -19 -42 -28 -10 -13 -23 -16 -53 -12 -22 3
-40 2 -40 -2 0 -3 14 -22 32 -41 41 -43 87 -46 122 -9 13 14 31 25 40 25 9 0
16 4 16 9 0 16 -21 24 -33 12 -14 -14 -47 -15 -47 -1 0 5 8 14 19 19 18 10 37
42 23 40 -4 -1 -20 -6 -37 -12z"/>
<path d="M1305 3437 c-53 -55 -75 -107 -75 -180 0 -102 86 -217 180 -242 15
-4 8 4 -19 20 -93 55 -134 123 -135 223 0 82 28 151 82 199 20 18 33 33 28 33
-6 0 -33 -24 -61 -53z"/>
<path d="M1882 3472 c-13 -2 -29 -16 -38 -34 -13 -26 -14 -38 -5 -69 13 -44
39 -62 83 -57 44 4 49 28 6 28 -42 0 -58 15 -58 56 0 39 20 57 54 48 19 -4 26
-2 26 9 0 16 -31 25 -68 19z"/>
<path d="M2000 3404 c-11 -36 -20 -72 -20 -80 0 -21 28 -17 35 6 4 14 15 20
35 20 20 0 31 -6 35 -20 5 -16 45 -30 45 -16 0 3 -15 39 -34 80 -27 58 -40 76
-55 76 -16 0 -24 -13 -41 -66z m53 -22 c-21 -5 -26 4 -18 35 l7 28 12 -30 c11
-25 10 -31 -1 -33z"/>
<path d="M2144 3424 c3 -26 6 -62 6 -80 0 -28 4 -34 21 -34 18 0 20 4 14 30
-9 40 13 40 40 0 11 -16 28 -30 38 -30 20 0 16 11 -15 46 -17 19 -17 22 -3 34
39 33 1 80 -65 80 l-43 0 7 -46z m76 -5 c0 -12 -7 -19 -20 -19 -14 0 -20 7
-20 24 0 19 4 23 20 19 11 -3 20 -14 20 -24z"/>
<path d="M2362 3393 c3 -43 7 -79 7 -80 1 -2 8 -3 16 -3 10 0 15 10 15 30 0
17 4 30 8 30 5 0 18 -13 30 -30 13 -16 29 -30 37 -30 21 0 19 10 -7 37 -19 20
-20 27 -10 43 28 45 1 80 -61 80 l-43 0 8 -77z m71 33 c7 -18 -1 -26 -25 -26
-11 0 -18 7 -18 20 0 23 35 28 43 6z"/>
<path d="M2510 3436 c0 -18 3 -54 6 -80 l7 -46 43 0 c32 0 44 4 44 15 0 10
-10 15 -30 15 -23 0 -30 4 -30 20 0 15 7 20 25 20 16 0 25 6 25 15 0 10 -10
15 -30 15 -20 0 -30 5 -30 15 0 10 10 15 30 15 20 0 30 5 30 15 0 11 -12 15
-45 15 -44 0 -45 0 -45 -34z"/>
<path d="M2640 3428 c0 -72 11 -118 28 -118 12 0 14 10 9 55 -3 30 -4 55 -3
55 2 0 20 -25 40 -55 26 -40 42 -55 59 -55 22 0 22 2 15 78 -3 42 -7 78 -7 80
-1 1 -8 2 -16 2 -12 0 -14 -10 -9 -55 4 -30 5 -55 2 -55 -3 0 -22 25 -42 55
-47 71 -76 76 -76 13z"/>
<path d="M2810 3455 c0 -9 9 -15 25 -15 23 0 25 -4 25 -42 0 -59 9 -88 28 -88
12 0 14 11 8 65 l-7 65 27 0 c16 0 24 5 22 13 -3 7 -28 13 -66 15 -51 2 -62 0
-62 -13z"/>
<path d="M5110 3128 c-44 -24 -54 -59 -34 -131 9 -34 19 -75 21 -90 5 -27 6
-27 24 -11 23 20 25 44 4 44 -18 0 -35 31 -35 64 0 21 5 26 25 26 13 0 28 7
33 16 12 22 32 9 32 -21 0 -13 6 -25 13 -28 9 -3 9 -9 0 -25 -20 -34 -1 -69
45 -81 26 -7 43 -19 50 -36 6 -14 15 -85 18 -159 l7 -135 29 -10 c36 -13 79
-5 140 26 82 40 104 97 64 166 -20 33 -26 57 -26 101 0 32 -4 65 -9 75 -11 19
-64 45 -128 61 -34 9 -47 20 -78 65 -20 31 -47 63 -61 71 -33 22 -103 28 -134
12z"/>
<path d="M1477 2815 c13 -211 15 -456 3 -390 -6 35 -7 30 -9 -31 -1 -53 3 -75
14 -84 8 -7 15 -22 15 -34 0 -39 -37 45 -45 104 -6 40 -10 49 -14 32 -9 -33
-25 -28 -32 10 -4 22 -7 9 -8 -42 -1 -54 5 -93 20 -134 18 -54 59 -120 84
-138 6 -5 6 -8 1 -8 -6 0 -5 -5 2 -12 7 -7 12 -21 12 -33 1 -16 13 -7 56 40
54 59 55 60 49 110 -3 27 -12 176 -21 330 -8 154 -19 322 -22 373 l-7 94 -55
1 -55 2 12 -190z m20 -467 c-3 -8 -6 -5 -6 6 -1 11 2 17 5 13 3 -3 4 -12 1
-19z m-72 -8 c3 -5 1 -10 -4 -10 -6 0 -11 5 -11 10 0 6 2 10 4 10 3 0 8 -4 11
-10z"/>
<path d="M2170 2755 c-41 -25 -95 -52 -120 -61 -53 -20 -80 -47 -80 -80 0 -12
-5 -26 -11 -30 -13 -8 -3 -53 18 -76 9 -10 29 -18 45 -18 23 0 28 4 28 24 0
36 39 76 80 82 46 7 96 -24 116 -71 l14 -35 95 0 c52 0 95 4 95 8 0 5 -9 17
-20 27 -36 32 -13 27 37 -8 44 -31 55 -35 126 -36 l77 -2 0 26 c0 37 50 85 89
85 58 0 120 -49 101 -80 -6 -9 -11 -7 -20 9 -13 26 -67 51 -89 43 -53 -18 -66
-70 -30 -116 16 -20 29 -26 59 -26 21 0 43 6 50 15 19 22 50 19 50 -5 0 -11 7
-23 15 -27 12 -4 14 -15 10 -48 -8 -50 4 -59 59 -44 45 13 86 61 86 103 0 39
-24 76 -50 76 -22 0 -40 28 -40 60 0 11 -16 36 -36 54 -30 27 -54 38 -122 52
-67 15 -95 26 -126 53 -23 19 -66 46 -96 60 -49 23 -69 26 -195 28 l-140 3
-75 -45z m404 -25 l48 -35 -212 -3 c-117 -1 -215 0 -218 3 -8 8 20 35 57 56
31 16 53 19 156 16 120 -2 120 -2 169 -37z"/>
<path d="M4925 2795 c-5 -2 -23 -6 -39 -10 -26 -5 -28 -8 -22 -43 3 -20 9 -61
12 -89 l6 -53 42 5 c22 2 47 4 54 4 7 1 11 4 9 9 -3 4 -8 25 -11 47 -8 51 -16
95 -22 118 -5 17 -9 19 -29 12z"/>
<path d="M2102 2554 c-15 -10 -22 -25 -22 -48 0 -94 124 -115 145 -25 5 19 0
34 -20 57 -30 36 -67 42 -103 16z"/>
<path d="M1235 2475 c-16 -8 -43 -16 -58 -20 -20 -4 -33 -16 -43 -40 -19 -47
-18 -72 6 -102 17 -21 18 -29 8 -42 -12 -14 -11 -14 5 -2 15 12 20 11 37 -4
11 -10 20 -28 20 -40 0 -30 19 -45 58 -45 31 0 33 2 31 28 -2 15 2 37 9 49 16
30 15 58 -4 95 -13 26 -14 35 -3 55 9 16 10 32 3 51 -11 32 -28 36 -69 17z"/>
<path d="M956 2105 c-3 -8 -1 -15 4 -15 24 0 7 -20 -17 -21 -24 -2 -25 -2 -5
-6 14 -3 22 -11 20 -21 -3 -15 29 -26 101 -35 11 -2 38 69 41 106 0 4 -31 7
-69 7 -52 0 -70 -4 -75 -15z"/>
<path d="M6240 1960 c0 -5 5 -10 11 -10 5 0 7 5 4 10 -3 6 -8 10 -11 10 -2 0
-4 -4 -4 -10z"/>
<path d="M1647 1953 c-4 -3 -7 -17 -7 -30 0 -16 6 -23 19 -23 23 0 32 19 19
43 -9 18 -20 22 -31 10z"/>
<path d="M6140 1897 c0 -13 -6 -29 -12 -36 -10 -11 -10 -13 0 -7 7 5 12 1 12
-9 0 -9 -4 -13 -10 -10 -5 3 -10 -1 -10 -11 0 -13 3 -14 14 -5 12 10 22 101
11 101 -3 0 -5 -10 -5 -23z"/>
<path d="M3610 1839 c0 -5 5 -7 10 -4 6 3 10 8 10 11 0 2 -4 4 -10 4 -5 0 -10
-5 -10 -11z"/>
<path d="M3435 1750 c-3 -6 1 -7 9 -4 18 7 21 14 7 14 -6 0 -13 -4 -16 -10z"/>
<path d="M3400 1720 c8 -5 22 -9 30 -9 10 0 8 3 -5 9 -27 12 -43 12 -25 0z"/>
<path d="M6483 1714 c3 -11 9 -36 13 -58 5 -31 9 -35 16 -22 6 11 5 29 -2 51
-12 36 -37 63 -27 29z"/>
<path d="M6190 1011 c0 -26 25 -44 50 -36 24 8 27 40 4 49 -31 12 -54 6 -54
-13z"/>
<path d="M6168 948 c9 -9 15 -9 24 0 9 9 7 12 -12 12 -19 0 -21 -3 -12 -12z"/>
<path d="M6295 900 c-3 -6 1 -7 9 -4 18 7 21 14 7 14 -6 0 -13 -4 -16 -10z"/>
<path d="M6182 892 c-7 -5 -10 -16 -6 -25 9 -25 19 -21 19 8 0 14 0 25 0 25 0
0 -6 -4 -13 -8z"/>
</g>
</svg>
