<?xml version="1.0" standalone="no"?>
<svg xmlns:xlink="http://www.w3.org/1999/xlink" id="wave" style="transform:rotate(0deg); transition: 0.3s" viewBox="0 0 1440 490" version="1.1" xmlns="http://www.w3.org/2000/svg"><defs><linearGradient id="sw-gradient-0" x1="0" x2="0" y1="1" y2="0"><stop stop-color="rgba(243, 106, 62, 1)" offset="0%"/><stop stop-color="rgba(255, 179, 11, 1)" offset="100%"/></linearGradient></defs><path style="transform:translate(0, 0px); opacity:1" fill="url(#sw-gradient-0)" d="M0,343L80,359.3C160,376,320,408,480,375.7C640,343,800,245,960,187.8C1120,131,1280,114,1440,98C1600,82,1760,65,1920,106.2C2080,147,2240,245,2400,285.8C2560,327,2720,310,2880,302.2C3040,294,3200,294,3360,253.2C3520,212,3680,131,3840,81.7C4000,33,4160,16,4320,40.8C4480,65,4640,131,4800,204.2C4960,278,5120,359,5280,367.5C5440,376,5600,310,5760,285.8C5920,261,6080,278,6240,310.3C6400,343,6560,392,6720,416.5C6880,441,7040,441,7200,432.8C7360,425,7520,408,7680,383.8C7840,359,8000,327,8160,269.5C8320,212,8480,131,8640,122.5C8800,114,8960,180,9120,228.7C9280,278,9440,310,9600,285.8C9760,261,9920,180,10080,171.5C10240,163,10400,229,10560,253.2C10720,278,10880,261,11040,277.7C11200,294,11360,343,11440,367.5L11520,392L11520,490L11440,490C11360,490,11200,490,11040,490C10880,490,10720,490,10560,490C10400,490,10240,490,10080,490C9920,490,9760,490,9600,490C9440,490,9280,490,9120,490C8960,490,8800,490,8640,490C8480,490,8320,490,8160,490C8000,490,7840,490,7680,490C7520,490,7360,490,7200,490C7040,490,6880,490,6720,490C6560,490,6400,490,6240,490C6080,490,5920,490,5760,490C5600,490,5440,490,5280,490C5120,490,4960,490,4800,490C4640,490,4480,490,4320,490C4160,490,4000,490,3840,490C3680,490,3520,490,3360,490C3200,490,3040,490,2880,490C2720,490,2560,490,2400,490C2240,490,2080,490,1920,490C1760,490,1600,490,1440,490C1280,490,1120,490,960,490C800,490,640,490,480,490C320,490,160,490,80,490L0,490Z"/></svg>